HIERARCHY
ROOT Hips
{
	OFFSET 0.00000 0.00000 0.00000
	CHANNELS 6 Xposition Yposition Zposition Zrotation Yrotation Xrotation 
	JOINT LHipJoint
	{
		OFFSET 0 0 0
		CHANNELS 3 Zrotation Yrotation Xrotation
		JOINT LeftHip
		{
			OFFSET 1.39187 -1.60231 0.69152
			CHANNELS 3 Zrotation Yrotation Xrotation
			JOINT LeftKnee
			{
				OFFSET 2.43314 -6.68499 0.00000
				CHANNELS 3 Zrotation Yrotation Xrotation
				JOINT LeftAnkle
				{
					OFFSET 2.32059 -6.37578 0.00000
					CHANNELS 3 Zrotation Yrotation Xrotation
					JOINT LeftToe
					{
						OFFSET 0.23021 -0.63250 1.71305
						CHANNELS 3 Zrotation Yrotation Xrotation
						End Site
						{
							OFFSET 0.00000 -0.00000 0.91647
						}
					}
				}
			}
		}
	}
	JOINT RHipJoint
	{
		OFFSET 0 0 0
		CHANNELS 3 Zrotation Yrotation Xrotation
		JOINT RightHip
		{
			OFFSET -1.19407 -1.60231 0.69152
			CHANNELS 3 Zrotation Yrotation Xrotation
			JOINT RightKnee
			{
				OFFSET -2.44411 -6.71513 0.00000
				CHANNELS 3 Zrotation Yrotation Xrotation
				JOINT RightAnkle
				{
					OFFSET -2.31924 -6.37207 0.00000
					CHANNELS 3 Zrotation Yrotation Xrotation
					JOINT RightToe
					{
						OFFSET -0.19473 -0.53502 1.87724
						CHANNELS 3 Zrotation Yrotation Xrotation
						End Site
						{
							OFFSET -0.00000 -0.00000 0.98293
						}
					}
				}
			}
		}
	}
	JOINT lowerback
	{
		OFFSET 0 0 0
		CHANNELS 3 Zrotation Yrotation Xrotation
		JOINT Chest
		{
			OFFSET -0.01120 1.87307 0.09613
			CHANNELS 3 Zrotation Yrotation Xrotation
			JOINT Chest2
			{
				OFFSET 0.01099 1.87818 0.04834
				CHANNELS 3 Zrotation Yrotation Xrotation
				JOINT lowerneck
				{
					OFFSET 0 0 0
					CHANNELS 3 Zrotation Yrotation Xrotation
					JOINT Neck
					{
						OFFSET 0.01702 1.40324 -0.12579
						CHANNELS 3 Zrotation Yrotation Xrotation
						JOINT Head
						{
							OFFSET -0.04239 1.38587 -0.01614
							CHANNELS 3 Zrotation Yrotation Xrotation
							End Site
							{
								OFFSET -0.02510 1.47031 -0.00154
							}
						}
					}
				}
				JOINT LeftCollar
				{
					OFFSET 0 0 0
					CHANNELS 3 Zrotation Yrotation Xrotation
					JOINT LeftShoulder
					{
						OFFSET 2.95699 0.62343 0.11653
CHANNELS 3 Zrotation Xrotation Yrotation
						JOINT LeftElbow
						{
OFFSET 0 -4.683820 -0.000000
CHANNELS 3 Zrotation Xrotation Yrotation
							JOINT LeftWrist
							{
OFFSET 0 -2.981240 -0.000000
CHANNELS 3 Zrotation Xrotation Yrotation
								JOINT lhand
								{
									OFFSET 0 0 0
CHANNELS 3 Zrotation Xrotation Yrotation
									JOINT LFingers
									{
OFFSET 0 -0.707590 0.000000
CHANNELS 3 Zrotation Xrotation Yrotation
										End Site
										{
OFFSET 0 -0.570480 0.000000
										}
									}
								}
								JOINT LThumb
								{
OFFSET 0 0.000000 0.000000
CHANNELS 3 Zrotation Xrotation Yrotation
									End Site
									{
OFFSET 0 -0.579190 0.579190
									}
								}
							}
						}
					}
				}
				JOINT RightCollar
				{
					OFFSET 0 0 0
					CHANNELS 3 Zrotation Yrotation Xrotation
					JOINT RightShoulder
					{
						OFFSET -2.99027 0.88714 -0.02793
CHANNELS 3 Zrotation Xrotation Yrotation
						JOINT RightElbow
						{
OFFSET 0 -4.758760 -0.000000
CHANNELS 3 Zrotation Xrotation Yrotation
							JOINT RightWrist
							{
OFFSET 0 -2.932930 -0.000000
CHANNELS 3 Zrotation Xrotation Yrotation
								JOINT rhand
								{
									OFFSET 0 0 0
CHANNELS 3 Zrotation Xrotation Yrotation
									JOINT RFingers
									{
OFFSET 0 -0.831750 0.000000
CHANNELS 3 Zrotation Xrotation Yrotation
										End Site
										{
OFFSET 0 -0.670580 0.000000
										}
									}
								}
								JOINT RThumb
								{
OFFSET 0 0.000000 0.000000
CHANNELS 3 Zrotation Xrotation Yrotation
									End Site
									{
OFFSET 0 -0.680820 0.680820
									}
								}
							}
						}
					}
				}
			}
		}
	}
}
MOTION
Frames: 7
Frame Time: 0.008333333333333333
25.892089 14.794979 1.988238 190.447122 -82.466922 -143.779598 0.000000 0.000000 0.000000 9.122574 -26.260459 -90.542733 13.142687 18.831926 69.567040 0.410242 11.877100 -21.577691 0.276638 3.365196 9.298796 0.000000 0.000000 0.000000 -3.683690 25.307708 -90.608752 -4.577520 -12.891584 38.963938 0.315846 -14.758725 -17.076626 -1.317838 7.260428 -20.494007 0.818131 1.658963 20.252917 1.464976 2.524556 -1.041455 0.402148 1.149156 -12.623578 -1.437161 5.703141 -1.890568 -8.670977 2.317218 -43.412190 -3.324975 0.888836 -14.761779 0.000000 0.000000 0.000000 58.087537 -17.016597 0.505060 120.104593 -56.281921 85.745870 54.399855 36.622523 -27.289894 0.000000 0.000000 0.000000 -7.125000 0.000000 0.000000 37.811249 67.938367 -22.035096 0.000000 0.000000 0.000000 -66.171427 -7.679035 2.167420 -135.550382 -50.495812 -98.186683 -55.595933 -16.645598 -21.854141 0.000000 0.000000 0.000000 7.125000 0.000000 0.000000 -15.788743 -4.222575 -17.568205
25.937827 14.789616 2.011132 190.631549 -82.381404 -144.381943 0.000000 0.000000 0.000000 6.957770 -25.978908 -89.148919 13.860156 19.067047 71.773506 0.444440 11.555246 -21.566098 0.287908 3.450550 9.535794 0.000000 0.000000 0.000000 -3.251867 25.227810 -90.151276 -4.518109 -12.819616 38.697028 0.540014 -16.870497 -17.959048 -2.126688 9.045761 -25.992919 0.987379 1.543455 19.580728 1.518409 2.416271 -1.187019 0.412315 1.096155 -12.397537 -2.363842 5.918972 -1.273803 -8.090695 2.751627 -43.616672 -2.994650 1.187291 -15.039097 0.000000 0.000000 0.000000 57.686737 -16.094107 0.416227 120.489521 -56.177889 86.065821 53.717063 35.520303 -27.240619 0.000000 0.000000 0.000000 -7.125000 0.000000 0.000000 36.291482 67.674290 -20.851264 0.000000 0.000000 0.000000 -65.801031 -6.495734 2.583956 -135.901965 -50.318545 -98.457581 -55.350546 -16.405802 -21.493580 0.000000 0.000000 0.000000 7.125000 0.000000 0.000000 -15.756647 -3.588656 -17.364661
25.991132 14.777931 2.031970 189.876576 -82.351727 -143.890504 0.000000 0.000000 0.000000 4.850852 -25.717114 -87.923671 14.569723 19.273154 73.933643 0.520299 11.026019 -21.748798 0.153910 2.356901 6.501399 0.000000 0.000000 0.000000 -3.064042 25.055904 -89.947671 -4.460304 -12.748866 38.435726 0.391912 -15.270452 -17.109151 -1.579399 7.728284 -21.997448 1.078173 1.383948 18.693240 1.554403 2.223666 -1.335995 0.474248 1.009895 -12.051487 -2.213552 5.908990 -1.656333 -8.265969 2.778058 -42.858603 -3.045652 1.218760 -14.549394 0.000000 0.000000 0.000000 57.411475 -15.233948 0.505159 120.812955 -56.089215 86.334386 53.009896 34.433463 -27.165298 0.000000 0.000000 0.000000 -7.125000 0.000000 0.000000 34.737944 67.370204 -19.638875 0.000000 0.000000 0.000000 -65.507907 -5.518241 2.853824 -136.208367 -50.162305 -98.693134 -55.207086 -16.558847 -21.384536 0.000000 0.000000 0.000000 7.125000 0.000000 0.000000 -15.708963 -3.357458 -17.247815
26.055754 14.766741 2.050518 188.428164 -82.397856 -142.587902 0.000000 0.000000 0.000000 2.901756 -25.516783 -86.818941 15.250058 19.446224 75.986160 0.575052 10.320114 -21.573601 0.043594 1.300859 3.577713 0.000000 0.000000 0.000000 -3.022157 24.795540 -89.894108 -4.383792 -12.653968 38.087186 0.297959 -14.133836 -16.226671 -1.153282 6.799602 -19.130271 1.169636 1.199317 17.737954 1.539821 1.989871 -1.528723 0.488758 0.902207 -11.711832 -1.722562 5.827432 -2.117475 -8.629552 2.681682 -41.947625 -3.212679 1.165669 -13.956662 0.000000 0.000000 0.000000 57.325534 -14.508665 0.652981 121.009477 -56.034881 86.497457 52.526668 33.623345 -27.116490 0.000000 0.000000 0.000000 -7.125000 0.000000 0.000000 33.699588 67.164190 -18.838614 0.000000 0.000000 0.000000 -65.179318 -4.618919 3.024837 -136.455080 -50.035266 -98.882434 -55.262543 -17.112528 -21.507697 0.000000 0.000000 0.000000 7.125000 0.000000 0.000000 -15.704590 -3.557399 -17.294853
26.124682 14.765463 2.069326 187.383886 -82.389541 -141.774713 0.000000 0.000000 0.000000 1.013090 -25.249287 -85.499738 15.888793 19.587384 77.898738 0.608134 9.523464 -21.132726 0.014531 0.725679 1.994582 0.000000 0.000000 0.000000 -2.773811 24.567287 -89.670830 -4.284672 -12.529455 37.632338 0.387281 -14.773386 -16.016064 -1.408934 7.502435 -21.215176 1.296369 1.056611 16.963959 1.487983 1.816780 -1.739095 0.419076 0.816890 -11.493522 -1.578071 5.814965 -2.041023 -8.682033 2.733085 -41.440221 -3.243953 1.203281 -13.709616 0.000000 0.000000 0.000000 57.380201 -13.899549 0.778521 121.064949 -56.019428 86.543469 52.271212 33.084759 -27.101169 0.000000 0.000000 0.000000 -7.125000 0.000000 0.000000 33.171003 67.066817 -18.443762 0.000000 0.000000 0.000000 -64.830087 -3.742406 3.178839 -136.604749 -49.957615 -98.997133 -55.573152 -17.937248 -21.720572 0.000000 0.000000 0.000000 7.125000 0.000000 0.000000 -15.814070 -4.028641 -17.548868
26.183048 14.781516 2.090264 187.826224 -82.114620 -142.826831 0.000000 0.000000 0.000000 -1.079777 -24.691771 -83.461987 16.467887 19.697466 79.622228 0.658455 8.791491 -20.953444 0.001480 0.250737 0.689031 0.000000 0.000000 0.000000 -1.962272 24.549520 -88.868546 -4.174196 -12.388419 37.120590 0.411694 -14.781126 -15.632952 -1.599720 7.976079 -22.641991 1.385107 1.037691 16.605539 1.442040 1.803297 -1.869286 0.326999 0.805411 -11.427433 -1.815560 5.879109 -1.587266 -8.415806 2.957665 -41.203348 -3.121386 1.347917 -13.693131 0.000000 0.000000 0.000000 57.449669 -13.340506 0.884971 121.027797 -56.029754 86.512709 52.029940 32.599402 -27.108040 0.000000 0.000000 0.000000 -7.125000 0.000000 0.000000 32.694449 66.999550 -18.106401 0.000000 0.000000 0.000000 -64.567957 -2.939158 3.357840 -136.615413 -49.952014 -99.005350 -56.100874 -18.796697 -21.827550 0.000000 0.000000 0.000000 7.125000 0.000000 0.000000 -16.071078 -4.486469 -17.977595
26.221020 14.809200 2.108330 188.445992 -81.463487 -144.487073 0.000000 0.000000 0.000000 -3.620491 -23.747148 -80.590312 16.954585 19.775668 81.063669 0.683965 8.297099 -20.772616 0.001313 0.233507 0.641691 0.000000 0.000000 0.000000 -0.972567 24.797678 -87.445254 -4.056432 -12.234941 36.568570 0.434193 -14.561740 -14.793380 -1.749351 8.322430 -23.698189 1.168899 1.142826 16.498982 1.389765 1.889278 -1.798192 0.372081 0.858940 -11.289929 -1.512952 5.872501 -1.615368 -8.543607 3.031686 -40.544103 -3.201429 1.381456 -13.347700 0.000000 0.000000 0.000000 57.493663 -12.868780 1.139402 120.963478 -56.047736 86.459347 51.527602 31.957302 -27.156802 0.000000 0.000000 0.000000 -7.125000 0.000000 0.000000 31.737949 66.898932 -17.460119 0.000000 0.000000 0.000000 -64.404777 -2.377687 3.406602 -136.481925 -50.021435 -98.903059 -56.623370 -19.234215 -21.628405 0.000000 0.000000 0.000000 7.125000 0.000000 0.000000 -16.411574 -4.530463 -18.402567
